<svg width="38" height="24" viewBox="0 0 38 24" fill="none" xmlns="http://www.w3.org/2000/svg">
<path d="M25 0.999985V23C25 23.5523 25.4477 24 26 24C26.5523 24 27 23.5523 27 23V1.00003C27 0.447751 26.5523 4.72069e-05 26 4.72069e-05C25.4477 3.31876e-07 25 0.447704 25 0.999985Z" fill="#374957"/>
<path d="M20.492 7.96944L10.954 0.975435C10.209 0.42992 9.32752 0.101347 8.40724 0.0261376C7.48696 -0.0490718 6.56382 0.13202 5.74016 0.549339C4.9165 0.966658 4.22448 1.6039 3.74082 2.39044C3.25715 3.17698 3.00073 4.08209 2.99998 5.00544V19.0004C2.99854 19.9247 3.25362 20.8312 3.73683 21.6191C4.22003 22.407 4.9124 23.0453 5.73687 23.463C6.56134 23.8808 7.48556 24.0615 8.40665 23.9851C9.32774 23.9087 10.2096 23.5783 10.954 23.0304L20.492 16.0364C21.1249 15.572 21.6395 14.965 21.9942 14.2647C22.3489 13.5644 22.5338 12.7905 22.5338 12.0054C22.5338 11.2204 22.3489 10.4464 21.9942 9.74613C21.6395 9.04583 21.1249 8.43888 20.492 7.97444V7.96944Z" fill="#374957"/>
</svg>
