<svg width="38" height="24" viewBox="0 0 38 24" fill="none" xmlns="http://www.w3.org/2000/svg">
<path d="M11 0.999985L11 23C11 23.5523 11.4477 24 12 24C12.5523 24 13 23.5523 13 23L13 1.00003C13 0.447751 12.5523 4.72069e-05 12 4.72069e-05C11.4477 3.31876e-07 11 0.447704 11 0.999985Z" fill="#374957"/>
<g clip-path="url(#clip0_7_14707)">
<path d="M17.508 16.0306L27.046 23.0246C27.791 23.5701 28.6725 23.8987 29.5928 23.9739C30.513 24.0491 31.4362 23.868 32.2598 23.4507C33.0835 23.0333 33.7755 22.3961 34.2592 21.6096C34.7428 20.823 34.9993 19.9179 35 18.9946V4.99956C35.0015 4.07531 34.7464 3.16879 34.2632 2.38091C33.78 1.59303 33.0876 0.954695 32.2631 0.536967C31.4387 0.119239 30.5144 -0.0614954 29.5934 0.0148802C28.6723 0.0912558 27.7904 0.421745 27.046 0.969562L17.508 7.96356C16.8751 8.42801 16.3605 9.03495 16.0058 9.73526C15.6511 10.4356 15.4662 11.2095 15.4662 11.9946C15.4662 12.7796 15.6511 13.5536 16.0058 14.2539C16.3605 14.9542 16.8751 15.5611 17.508 16.0256V16.0306Z" fill="#374957"/>
</g>
<defs>
<clipPath id="clip0_7_14707">
<rect width="24" height="24" fill="white" transform="matrix(-1 0 0 -1 38 24)"/>
</clipPath>
</defs>
</svg>
