<svg width="24" height="24" viewBox="0 0 24 24" fill="none" xmlns="http://www.w3.org/2000/svg">
<g clip-path="url(#clip0_515_7)">
<path d="M23.421 16.5822L20.13 13.2912C20.0382 13.1935 19.9278 13.1152 19.8053 13.0611C19.6827 13.0069 19.5505 12.9779 19.4165 12.9758C19.2826 12.9737 19.1495 12.9986 19.0253 13.049C18.9012 13.0993 18.7884 13.1741 18.6936 13.2689C18.5989 13.3636 18.5242 13.4765 18.474 13.6007C18.4237 13.7249 18.399 13.858 18.4011 13.9919C18.4033 14.1259 18.4324 14.2581 18.4866 14.3806C18.5409 14.5031 18.6192 14.6135 18.717 14.7052L21.007 16.9992C19.7621 17.002 18.5292 16.7557 17.381 16.2748C16.2328 15.794 15.1923 15.0882 14.321 14.1992C14.2242 14.1101 14.1105 14.0413 13.9867 13.997C13.8629 13.9526 13.7314 13.9336 13.6 13.9411C13.4687 13.9486 13.3402 13.9823 13.2222 14.0404C13.1042 14.0985 12.999 14.1797 12.913 14.2792L12.9 14.2992C12.7319 14.4947 12.6458 14.7477 12.6598 15.0052C12.6737 15.2628 12.7867 15.5049 12.975 15.6812C14.0248 16.7429 15.2766 17.5835 16.6567 18.1533C18.0367 18.7232 19.5169 19.0108 21.01 18.9992L18.717 21.2922C18.6125 21.382 18.5277 21.4925 18.4679 21.6167C18.4082 21.7409 18.3748 21.8761 18.3697 22.0138C18.3647 22.1516 18.3882 22.2888 18.4387 22.4171C18.4893 22.5453 18.5658 22.6617 18.6635 22.7589C18.7611 22.8562 18.8778 22.9322 19.0063 22.9822C19.1347 23.0322 19.2721 23.0551 19.4098 23.0495C19.5475 23.0439 19.6825 23.0098 19.8065 22.9496C19.9304 22.8893 20.0405 22.804 20.13 22.6992L23.421 19.4082C23.7953 19.0332 24.0055 18.525 24.0055 17.9952C24.0055 17.4653 23.7953 16.9571 23.421 16.5822V16.5822Z" fill="#374957"/>
<path d="M21.007 6.99959L18.717 9.28959C18.6976 9.31591 18.6795 9.34329 18.6631 9.37159C18.5017 9.56834 18.4221 9.81958 18.4407 10.0734C18.4594 10.3271 18.5748 10.5641 18.7632 10.7351C18.9516 10.9062 19.1985 10.9983 19.4529 10.9924C19.7073 10.9866 19.9497 10.8832 20.13 10.7036L21.836 8.99959L23.422 7.41459C23.6902 7.14435 23.8756 6.80319 23.9566 6.43119C24.0375 6.0592 24.0106 5.67183 23.879 5.31459C23.7819 5.04114 23.6255 4.79254 23.421 4.58659L20.13 1.29959C20.0388 1.2004 19.9283 1.1207 19.8055 1.06526C19.6826 1.00983 19.5498 0.979814 19.415 0.977021C19.2802 0.974229 19.1462 0.998717 19.0212 1.04901C18.8961 1.09931 18.7825 1.17438 18.6872 1.2697C18.5918 1.36502 18.5168 1.47864 18.4665 1.60371C18.4162 1.72879 18.3917 1.86274 18.3945 1.99752C18.3973 2.1323 18.4273 2.26512 18.4827 2.38801C18.5382 2.51089 18.6179 2.6213 18.717 2.71259L21.01 5.00459C16.0771 5.01659 13.3731 7.67859 10.9211 10.4786C8.66906 7.93659 6.00007 5.39959 1.48707 5.04559L1.00607 4.99959C0.740856 4.99959 0.486502 5.10495 0.298966 5.29249C0.11143 5.48002 0.006073 5.73438 0.006073 5.99959C0.0111931 6.26321 0.118194 6.5146 0.304631 6.70104C0.491069 6.88747 0.742459 6.99447 1.00607 6.99959C1.07807 6.99959 1.29307 7.03259 1.29307 7.03259C5.18907 7.32759 7.42507 9.52159 9.60006 11.9996C7.43807 14.4656 5.21707 16.6996 1.35307 16.9596L0.953072 16.9806C0.689845 16.997 0.443931 17.1174 0.269429 17.3151C0.0949262 17.5129 0.00612958 17.7719 0.022573 18.0351C0.0390164 18.2983 0.159353 18.5442 0.35711 18.7187C0.554867 18.8932 0.813845 18.982 1.07707 18.9656C1.23307 18.9586 1.48707 18.9526 1.61207 18.9426C6.63207 18.5556 9.35506 15.3426 11.7831 12.5336C14.2351 9.69959 16.5511 7.01759 21.007 6.99959Z" fill="#374957"/>
</g>
<defs>
<clipPath id="clip0_515_7">
<rect width="24" height="24" fill="white"/>
</clipPath>
</defs>
</svg>
