<svg width="24" height="24" viewBox="0 0 24 24" fill="none" xmlns="http://www.w3.org/2000/svg">
                            <g clip-path="url(#clip0_1_10)">
                                <path d="M17.5002 0.917152C16.3742 0.934667 15.2727 1.24901 14.307 1.82842C13.3413 2.40784 12.5456 3.23182 12.0002 4.21715C11.4549 3.23182 10.6592 2.40784 9.69347 1.82842C8.72777 1.24901 7.62628 0.934667 6.50023 0.917152C4.70517 0.995143 3.01394 1.78041 1.79602 3.10138C0.578092 4.42236 -0.0675176 6.17168 0.000232949 7.96715C0.000232949 14.7422 10.9562 22.5672 11.4222 22.8992L12.0002 23.3082L12.5782 22.8992C13.0442 22.5692 24.0002 14.7422 24.0002 7.96715C24.068 6.17168 23.4224 4.42236 22.2045 3.10138C20.9865 1.78041 19.2953 0.995143 17.5002 0.917152V0.917152ZM12.0002 20.8462C8.74723 18.4162 2.00023 12.4462 2.00023 7.96715C1.93187 6.70187 2.3666 5.46088 3.2096 4.51485C4.05259 3.56882 5.23547 2.9945 6.50023 2.91715C7.765 2.9945 8.94787 3.56882 9.79087 4.51485C10.6339 5.46088 11.0686 6.70187 11.0002 7.96715H13.0002C12.9319 6.70187 13.3666 5.46088 14.2096 4.51485C15.0526 3.56882 16.2355 2.9945 17.5002 2.91715C18.765 2.9945 19.9479 3.56882 20.7909 4.51485C21.6339 5.46088 22.0686 6.70187 22.0002 7.96715C22.0002 12.4482 15.2532 18.4162 12.0002 20.8462Z" fill="#374957" />
                            </g>
                            <defs>
                                <clipPath id="clip0_1_10">
                                    <rect width="24" height="24" fill="white" />
                                </clipPath>
                            </defs>
                        </svg>