<svg width="24" height="24" viewBox="0 0 24 24" fill="none" xmlns="http://www.w3.org/2000/svg">
<g clip-path="url(#clip0_1_24)">
<path d="M23.1212 9.06892L15.5362 1.48292C14.5975 0.546909 13.3259 0.0212936 12.0002 0.0212936C10.6746 0.0212936 9.40297 0.546909 8.46421 1.48292L0.879212 9.06892C0.599638 9.3467 0.377982 9.67722 0.227095 10.0413C0.0762075 10.4054 -0.000910129 10.7958 0.000212351 11.1899V21.0069C0.000212351 21.8026 0.316283 22.5656 0.878892 23.1282C1.4415 23.6908 2.20456 24.0069 3.00021 24.0069H21.0002C21.7959 24.0069 22.5589 23.6908 23.1215 23.1282C23.6841 22.5656 24.0002 21.8026 24.0002 21.0069V11.1899C24.0013 10.7958 23.9242 10.4054 23.7733 10.0413C23.6224 9.67722 23.4008 9.3467 23.1212 9.06892V9.06892ZM15.0002 22.0069H9.00021V18.0729C9.00021 17.2773 9.31628 16.5142 9.87889 15.9516C10.4415 15.389 11.2046 15.0729 12.0002 15.0729C12.7959 15.0729 13.5589 15.389 14.1215 15.9516C14.6841 16.5142 15.0002 17.2773 15.0002 18.0729V22.0069ZM22.0002 21.0069C22.0002 21.2721 21.8949 21.5265 21.7073 21.714C21.5198 21.9016 21.2654 22.0069 21.0002 22.0069H17.0002V18.0729C17.0002 16.7468 16.4734 15.4751 15.5357 14.5374C14.5981 13.5997 13.3263 13.0729 12.0002 13.0729C10.6741 13.0729 9.40236 13.5997 8.46468 14.5374C7.527 15.4751 7.00021 16.7468 7.00021 18.0729V22.0069H3.00021C2.735 22.0069 2.48064 21.9016 2.29311 21.714C2.10557 21.5265 2.00021 21.2721 2.00021 21.0069V11.1899C2.00114 10.9249 2.1064 10.6709 2.29321 10.4829L9.87821 2.89992C10.4419 2.33885 11.2049 2.02386 12.0002 2.02386C12.7955 2.02386 13.5585 2.33885 14.1222 2.89992L21.7072 10.4859C21.8933 10.6732 21.9985 10.9259 22.0002 11.1899V21.0069Z" fill="#374957"/>
</g>
<defs>
<clipPath id="clip0_1_24">
<rect width="24" height="24" fill="white"/>
</clipPath>
</defs>
</svg>
