<svg width="24" height="24" viewBox="0 0 24 24" fill="none" xmlns="http://www.w3.org/2000/svg">
<g clipPath="url(#clip0_2_61)">
<path d="M22.5549 13.6619L20.6549 6.82595C20.098 4.82328 18.8876 3.06423 17.2162 1.82842C15.5448 0.592599 13.5083 -0.0490676 11.4304 0.00541254C9.35241 0.0598927 7.3523 0.807393 5.74795 2.12909C4.14361 3.4508 3.02709 5.27085 2.57589 7.29995L1.10489 13.9149C0.942406 14.6459 0.946162 15.404 1.11588 16.1333C1.2856 16.8626 1.61695 17.5444 2.08547 18.1285C2.55399 18.7126 3.14771 19.184 3.8228 19.5079C4.49789 19.8318 5.23711 20 5.98589 19.9999H7.09989C7.32941 21.1302 7.94262 22.1464 8.83563 22.8763C9.72864 23.6062 10.8465 24.005 11.9999 24.005C13.1532 24.005 14.2711 23.6062 15.1641 22.8763C16.0572 22.1464 16.6704 21.1302 16.8999 19.9999H17.7379C18.5087 20 19.2691 19.8218 19.9596 19.4794C20.6502 19.1369 21.2522 18.6394 21.7187 18.0258C22.1852 17.4122 22.5035 16.699 22.6487 15.942C22.7939 15.185 22.7622 14.4046 22.5559 13.6619H22.5549ZM11.9999 21.9999C11.3816 21.9974 10.7793 21.8039 10.2752 21.4459C9.77112 21.0879 9.38997 20.5829 9.18389 19.9999H14.8159C14.6098 20.5829 14.2287 21.0879 13.7246 21.4459C13.2205 21.8039 12.6182 21.9974 11.9999 21.9999V21.9999ZM20.1259 16.8149C19.8472 17.1846 19.4862 17.4842 19.0715 17.6899C18.6568 17.8956 18.1998 18.0018 17.7369 17.9999H5.98589C5.53667 17.9999 5.09321 17.8989 4.68823 17.7045C4.28325 17.5101 3.9271 17.2273 3.64605 16.8768C3.36501 16.5264 3.16625 16.1173 3.06445 15.6798C2.96265 15.2423 2.96041 14.7875 3.05789 14.3489L4.52789 7.73295C4.88224 6.13915 5.7592 4.70955 7.01935 3.6714C8.2795 2.63324 9.85051 2.04612 11.4827 2.00336C13.1148 1.9606 14.7144 2.46466 16.0272 3.43541C17.34 4.40617 18.2906 5.78789 18.7279 7.36095L20.6279 14.1969C20.7534 14.6423 20.7734 15.1108 20.6863 15.5653C20.5991 16.0197 20.4073 16.4476 20.1259 16.8149V16.8149Z" fill="#374957"/>
</g>
<defs>
<clipPath id="clip0_2_61">
<rect width="24" height="24" fill="white"/>
</clipPath>
</defs>
</svg>
