<svg width="24" height="24" viewBox="0 0 24 24" fill="none" xmlns="http://www.w3.org/2000/svg">
<g clip-path="url(#clip0_403_3055)">
<path d="M15.0001 12.0004C15.0001 12.2656 14.8948 12.52 14.7073 12.7075C14.5197 12.895 14.2654 13.0004 14.0001 13.0004H13.0001V17.5004C13.0001 17.9948 12.8535 18.4782 12.5788 18.8893C12.3041 19.3004 11.9137 19.6209 11.4569 19.8101C11 19.9993 10.4974 20.0488 10.0124 19.9524C9.52747 19.8559 9.08201 19.6178 8.73238 19.2682C8.38275 18.9185 8.14465 18.4731 8.04819 17.9881C7.95172 17.5032 8.00123 17.0005 8.19045 16.5437C8.37967 16.0869 8.7001 15.6964 9.11122 15.4217C9.52235 15.147 10.0057 15.0004 10.5001 15.0004C10.668 15.0007 10.8355 15.0175 11.0001 15.0504V13.0004C11.0001 12.47 11.2109 11.9612 11.5859 11.5862C11.961 11.2111 12.4697 11.0004 13.0001 11.0004H14.0001C14.2654 11.0004 14.5197 11.1057 14.7073 11.2933C14.8948 11.4808 15.0001 11.7352 15.0001 12.0004ZM22.0001 10.4854V19.0004C21.9986 20.326 21.4713 21.5968 20.5339 22.5342C19.5966 23.4715 18.3257 23.9988 17.0001 24.0004H7.00015C5.67455 23.9988 4.40371 23.4715 3.46637 22.5342C2.52903 21.5968 2.00174 20.326 2.00015 19.0004V5.00039C2.00174 3.6748 2.52903 2.40395 3.46637 1.46661C4.40371 0.529272 5.67455 0.00197778 7.00015 0.000389923H11.5151C12.4349 -0.00201158 13.3459 0.178025 14.1956 0.530079C15.0453 0.882133 15.8167 1.39921 16.4651 2.05139L19.9491 5.53539C20.6013 6.18388 21.1184 6.95529 21.4705 7.80495C21.8225 8.65462 22.0026 9.56568 22.0001 10.4854ZM15.0511 3.46539C14.7366 3.16001 14.3833 2.89742 14.0001 2.68439V7.00039C14.0001 7.26561 14.1055 7.51996 14.293 7.7075C14.4806 7.89503 14.7349 8.00039 15.0001 8.00039H19.3161C19.1031 7.61727 18.8405 7.26389 18.5351 6.94939L15.0511 3.46539ZM20.0001 10.4854C20.0001 10.3204 19.9681 10.1624 19.9531 10.0004H15.0001C14.2045 10.0004 13.4414 9.68432 12.8788 9.12171C12.3162 8.5591 12.0001 7.79604 12.0001 7.00039V2.04739C11.8381 2.03239 11.6801 2.00039 11.5151 2.00039H7.00015C6.2045 2.00039 5.44144 2.31646 4.87883 2.87907C4.31622 3.44168 4.00015 4.20474 4.00015 5.00039V19.0004C4.00015 19.796 4.31622 20.5591 4.87883 21.1217C5.44144 21.6843 6.2045 22.0004 7.00015 22.0004H17.0001C17.7958 22.0004 18.5589 21.6843 19.1215 21.1217C19.6841 20.5591 20.0001 19.796 20.0001 19.0004V10.4854Z" fill="#374957"/>
</g>
<defs>
<clipPath id="clip0_403_3055">
<rect width="24" height="24" fill="white"/>
</clipPath>
</defs>
</svg>
