<svg width="24" height="24" viewBox="0 0 24 24" fill="none" xmlns="http://www.w3.org/2000/svg">
<g clip-path="url(#clip0_0_4)">
<path d="M22.916 0.690898C22.5768 0.409229 22.1797 0.20598 21.7528 0.0956866C21.326 -0.0146064 20.8801 -0.0292177 20.447 0.0528977L8.44796 2.2999C7.75965 2.42875 7.1381 2.79432 6.691 3.33328C6.24391 3.87225 5.99944 4.55063 5.99996 5.2509V16.5559C5.39461 16.196 4.70421 16.004 3.99996 15.9999C3.20883 15.9999 2.43547 16.2345 1.77768 16.674C1.11988 17.1135 0.607188 17.7383 0.304438 18.4692C0.00168735 19.2001 -0.077526 20.0043 0.0768149 20.7803C0.231156 21.5562 0.612119 22.2689 1.17153 22.8283C1.73094 23.3877 2.44367 23.7687 3.2196 23.923C3.99552 24.0774 4.79979 23.9982 5.53069 23.6954C6.26159 23.3927 6.88631 22.88 7.32584 22.2222C7.76536 21.5644 7.99996 20.791 7.99996 19.9999V9.4199L22 6.7999V13.5609C21.3951 13.1992 20.7047 13.0056 20 12.9999C19.2088 12.9999 18.4355 13.2345 17.7777 13.674C17.1199 14.1135 16.6072 14.7383 16.3044 15.4692C16.0017 16.2001 15.9225 17.0043 16.0768 17.7803C16.2312 18.5562 16.6121 19.2689 17.1715 19.8283C17.7309 20.3877 18.4437 20.7687 19.2196 20.923C19.9955 21.0774 20.7998 20.9982 21.5307 20.6954C22.2616 20.3927 22.8863 19.88 23.3258 19.2222C23.7654 18.5644 24 17.791 24 16.9999V2.9999C24 2.55902 23.9029 2.12354 23.7156 1.72445C23.5282 1.32536 23.2552 0.972473 22.916 0.690898V0.690898Z" fill="#374957"/>
</g>
<defs>
<clipPath id="clip0_0_4">
<rect width="24" height="24" fill="white"/>
</clipPath>
</defs>
</svg>
