<svg width="24" height="24" viewBox="0 0 24 24" fill="none" xmlns="http://www.w3.org/2000/svg">
<g clipPath="url(#clip0_0_14)">
<path d="M4.06803 18H19.724C20.2059 18 20.6806 17.884 21.1081 17.6617C21.5356 17.4394 21.9033 17.1174 22.18 16.723C22.4567 16.3285 22.6344 15.8732 22.6979 15.3956C22.7615 14.918 22.709 14.4321 22.545 13.979L19.693 6.09398C19.206 4.34169 18.1583 2.79717 16.7103 1.69665C15.2624 0.596135 13.4938 0.00019682 11.675 -1.52578e-05V-1.52578e-05C9.78176 -4.48511e-05 7.94508 0.645573 6.46824 1.83024C4.99141 3.01491 3.96272 4.66779 3.55203 6.51598L1.20203 14.116C1.06367 14.5647 1.03257 15.0396 1.11122 15.5025C1.18987 15.9654 1.37609 16.4034 1.65488 16.7812C1.93368 17.1591 2.29727 17.4662 2.71639 17.6778C3.13552 17.8895 3.59848 17.9999 4.06803 18V18Z" fill="#374957"/>
<path d="M7.09987 19.9999C7.32938 21.1302 7.9426 22.1464 8.83561 22.8763C9.72862 23.6062 10.8465 24.005 11.9999 24.005C13.1532 24.005 14.2711 23.6062 15.1641 22.8763C16.0571 22.1464 16.6704 21.1302 16.8999 19.9999H7.09987Z" fill="#374957"/>
</g>
<defs>
<clipPath id="clip0_0_14">
<rect width="24" height="24" fill="white"/>
</clipPath>
</defs>
</svg>
