<svg width="24" height="24" viewBox="0 0 24 24" fill="none" xmlns="http://www.w3.org/2000/svg">
<g clip-path="url(#clip0_0_18)">
<path d="M14.0002 6.99999V0.459992C14.9252 0.809328 15.7654 1.3513 16.4652 2.04999L19.9492 5.53599C20.6486 6.23487 21.191 7.07489 21.5402 7.99999H15.0002C14.7349 7.99999 14.4806 7.89464 14.293 7.7071C14.1055 7.51956 14.0002 7.26521 14.0002 6.99999ZM21.9762 9.99999H15.0002C14.2045 9.99999 13.4414 9.68392 12.8788 9.12131C12.3162 8.5587 12.0002 7.79564 12.0002 6.99999V0.0239924C11.8392 0.0129924 11.6782 -7.62939e-06 11.5152 -7.62939e-06H7.00015C5.67456 0.00158023 4.40371 0.528874 3.46637 1.46621C2.52903 2.40355 2.00174 3.6744 2.00015 4.99999V19C2.00174 20.3256 2.52903 21.5964 3.46637 22.5338C4.40371 23.4711 5.67456 23.9984 7.00015 24H17.0002C18.3257 23.9984 19.5966 23.4711 20.5339 22.5338C21.4713 21.5964 21.9986 20.3256 22.0002 19V10.485C22.0002 10.322 21.9872 10.161 21.9762 9.99999ZM14.0002 14H13.0002V18.5C13.0002 18.9944 12.8535 19.4778 12.5788 19.8889C12.3041 20.3 11.9137 20.6205 11.4569 20.8097C11 20.9989 10.4974 21.0484 10.0124 20.952C9.52747 20.8555 9.08202 20.6174 8.73239 20.2678C8.38275 19.9181 8.14465 19.4727 8.04819 18.9877C7.95173 18.5028 8.00123 18.0001 8.19045 17.5433C8.37967 17.0865 8.7001 16.696 9.11123 16.4213C9.52235 16.1466 10.0057 16 10.5002 16C10.6681 16.0003 10.8355 16.0171 11.0002 16.05V14C11.0002 13.4696 11.2109 12.9609 11.5859 12.5858C11.961 12.2107 12.4697 12 13.0002 12H14.0002C14.2654 12 14.5197 12.1053 14.7073 12.2929C14.8948 12.4804 15.0002 12.7348 15.0002 13C15.0002 13.2652 14.8948 13.5196 14.7073 13.7071C14.5197 13.8946 14.2654 14 14.0002 14Z" fill="#374957"/>
</g>
<defs>
<clipPath id="clip0_0_18">
<rect width="24" height="24" fill="white"/>
</clipPath>
</defs>
</svg>
